<?xml version="1.0" standalone="no"?>
<!DOCTYPE svg PUBLIC "-//W3C//DTD SVG 20010904//EN"
 "http://www.w3.org/TR/2001/REC-SVG-20010904/DTD/svg10.dtd">
<svg version="1.0" xmlns="http://www.w3.org/2000/svg"
 width="256.000000pt" height="256.000000pt" viewBox="0 0 256.000000 256.000000"
 preserveAspectRatio="xMidYMid meet">

<g transform="translate(0.000000,256.000000) scale(0.100000,-0.100000)"
fill="#000000" stroke="none">
<path d="M0 1280 l0 -1280 1280 0 1280 0 0 1280 0 1280 -1280 0 -1280 0 0
-1280z m2400 0 l0 -1120 -1120 0 -1120 0 0 1120 0 1120 1120 0 1120 0 0 -1120z"/>
<path d="M1740 575 l0 -175 50 0 c47 0 50 2 50 25 0 20 -5 25 -25 25 l-25 0 0
150 0 150 -25 0 -25 0 0 -175z"/>
<path d="M1890 725 c0 -20 5 -25 25 -25 20 0 25 5 25 25 0 20 -5 25 -25 25
-20 0 -25 -5 -25 -25z"/>
<path d="M1990 575 l0 -175 125 0 125 0 0 125 0 125 -100 0 -100 0 0 50 c0 47
-2 50 -25 50 l-25 0 0 -175z m200 -50 l0 -75 -75 0 -75 0 0 75 0 75 75 0 75 0
0 -75z"/>
<path d="M840 525 l0 -125 25 0 25 0 0 100 0 100 100 0 100 0 0 25 0 25 -125
0 -125 0 0 -125z"/>
<path d="M1140 625 l0 -25 100 0 100 0 0 -25 0 -25 -100 0 -100 0 0 -75 0 -75
125 0 125 0 0 125 0 125 -125 0 -125 0 0 -25z m200 -150 c0 -24 -2 -25 -75
-25 -73 0 -75 1 -75 25 0 24 2 25 75 25 73 0 75 -1 75 -25z"/>
<path d="M1440 525 l0 -125 100 0 100 0 0 -25 0 -25 -100 0 -100 0 0 -25 0
-25 125 0 125 0 0 175 0 175 -25 0 -25 0 0 -100 0 -100 -75 0 -75 0 0 100 0
100 -25 0 -25 0 0 -125z"/>
<path d="M1890 525 l0 -125 25 0 25 0 0 125 0 125 -25 0 -25 0 0 -125z"/>
</g>
</svg>
